<?xml version="1.0" encoding="UTF-8" standalone="no"?>
<!-- Generator: Adobe Illustrator 22.0.1, SVG Export Plug-In . SVG Version: 6.00 Build 0)  -->

<svg
   xmlns:dc="http://purl.org/dc/elements/1.1/"
   xmlns:cc="http://creativecommons.org/ns#"
   xmlns:rdf="http://www.w3.org/1999/02/22-rdf-syntax-ns#"
   xmlns:svg="http://www.w3.org/2000/svg"
   xmlns="http://www.w3.org/2000/svg"
   xmlns:sodipodi="http://sodipodi.sourceforge.net/DTD/sodipodi-0.dtd"
   xmlns:inkscape="http://www.inkscape.org/namespaces/inkscape"
   version="1.1"
   x="0px"
   y="0px"
   viewBox="0 0 60 60"
   enable-background="new 0 0 48 48"
   xml:space="preserve"
   id="svg2"
   inkscape:version="0.91 r13725"
   sodipodi:docname="Icon.svg"
   width="60"
   height="60"
   inkscape:export-filename="C:\GitDev\FixLinkSniffer\ETCDmxTool\res\icon_256.png"
   inkscape:export-xdpi="384"
   inkscape:export-ydpi="384"><metadata
     id="metadata49"><rdf:RDF><cc:Work
         rdf:about=""><dc:format>image/svg+xml</dc:format><dc:type
           rdf:resource="http://purl.org/dc/dcmitype/StillImage" /><dc:title></dc:title></cc:Work></rdf:RDF></metadata><defs
     id="defs47"><radialGradient
       gradientUnits="userSpaceOnUse"
       gradientTransform="matrix(0.02273684,0,0,0.02273684,-77.205638,-104.63353)"
       r="1211.2091"
       cy="5929.8042"
       cx="4721.769"
       id="SVGID_2_"><stop
         offset="0"
         style="stop-color:#1A1A1A"
         id="stop12" /><stop
         offset="0.55"
         style="stop-color:#404040"
         id="stop10" /></radialGradient></defs><sodipodi:namedview
     pagecolor="#ffffff"
     bordercolor="#666666"
     borderopacity="1"
     objecttolerance="10"
     gridtolerance="10"
     guidetolerance="10"
     inkscape:pageopacity="0"
     inkscape:pageshadow="2"
     inkscape:window-width="1920"
     inkscape:window-height="1018"
     id="namedview45"
     showgrid="false"
     fit-margin-top="0"
     fit-margin-left="0"
     fit-margin-right="0"
     fit-margin-bottom="0"
     inkscape:zoom="6.9532167"
     inkscape:cx="19.461869"
     inkscape:cy="30.027907"
     inkscape:window-x="-8"
     inkscape:window-y="-8"
     inkscape:window-maximized="1"
     inkscape:current-layer="svg2" /><path
     id="path5"
     d="M 55.263159,60 4.736842,60 C 2.120526,60 0,57.879474 0,55.263158 L 0,4.7368413 C 0,2.1205253 2.120526,-6.9384766e-7 4.736842,-6.9384766e-7 l 50.526317,0 c 2.616316,0 4.736842,2.12052599384766 4.736842,4.73684199384766 l 0,50.5263167 C 60.000001,57.879474 57.879475,60 55.263159,60 Z"
     inkscape:connector-curvature="0"
     style="fill:#000000;fill-opacity:1" /><path
     id="path7"
     d="M 58.421054,60 1.578947,60 C 0.710526,60 0,59.289474 0,58.421053 L 0,1.5789463 C 0,0.71052531 0.710526,-6.9384766e-7 1.578947,-6.9384766e-7 l 56.842107,0 c 0.871579,0 1.578947,0.70736800384766 1.578947,1.57894699384766 l 0,56.8421067 C 60.000001,59.289474 59.289475,60 58.421054,60 Z"
     inkscape:connector-curvature="0"
     style="fill:none" /><path
     id="path14"
     d="m 4.256842,3.6157893 c 0,0.353684 -0.287368,0.641052 -0.641052,0.641052 -0.353685,0 -0.641053,-0.287368 -0.641053,-0.641052 0,-0.353685 0.287368,-0.641053 0.641053,-0.641053 0.353684,0 0.641052,0.285789 0.641052,0.641053 z m 4.63579,-0.737369 c -0.407369,0 -0.737369,0.33 -0.737369,0.737369 0,0.407368 0.33,0.737368 0.737369,0.737368 0.407368,0 0.737368,-0.33 0.737368,-0.737368 0,-0.407369 -0.33,-0.737369 -0.737368,-0.737369 z m 5.276842,-0.184737 c -0.508421,0 -0.922105,0.412106 -0.922105,0.922106 0,0.508421 0.412105,0.922105 0.922105,0.922105 0.508421,0 0.922105,-0.412105 0.922105,-0.922105 0,-0.51 -0.413684,-0.922106 -0.922105,-0.922106 z m 5.276842,0 c -0.508421,0 -0.922105,0.412106 -0.922105,0.922106 0,0.508421 0.412105,0.922105 0.922105,0.922105 0.51,0 0.922105,-0.413684 0.922105,-0.922105 0,-0.51 -0.413684,-0.922106 -0.922105,-0.922106 z m 5.276842,-0.09158 c -0.560526,0 -1.013684,0.453158 -1.013684,1.013685 0,0.560526 0.453158,1.013684 1.013684,1.013684 0.560527,0 1.013685,-0.453158 1.013685,-1.013684 0,-0.560527 -0.453158,-1.013685 -1.013685,-1.013685 z m 5.276843,-0.102631 c -0.61579,0 -1.114737,0.498947 -1.114737,1.114737 0,0.615789 0.498947,1.114736 1.114737,1.114736 0.615789,0 1.114736,-0.498947 1.114736,-1.114736 0,-0.614211 -0.498947,-1.114737 -1.114736,-1.114737 z M 56.384212,28.885263 c -0.61579,0 -1.114737,0.498947 -1.114737,1.114737 0,0.615789 0.498947,1.114736 1.114737,1.114736 0.615789,0 1.116315,-0.498947 1.116315,-1.114736 0,-0.61579 -0.500526,-1.114737 -1.116315,-1.114737 z M 35.276843,2.6021043 c -0.560527,0 -1.013684,0.453158 -1.013684,1.013685 0,0.560526 0.453157,1.013684 1.013684,1.013684 0.560526,0 1.013684,-0.453158 1.013684,-1.013684 0,-0.560527 -0.453158,-1.013685 -1.013684,-1.013685 z m 5.276842,0.09158 c -0.508421,0 -0.922105,0.412106 -0.922105,0.922106 0,0.508421 0.412105,0.922105 0.922105,0.922105 0.508421,0 0.922105,-0.412105 0.922105,-0.922105 0,-0.51 -0.412105,-0.922106 -0.922105,-0.922106 z m 5.276842,0 c -0.508421,0 -0.922105,0.412106 -0.922105,0.922106 0,0.508421 0.412105,0.922105 0.922105,0.922105 0.51,0 0.922106,-0.413684 0.922106,-0.922105 0,-0.51 -0.412106,-0.922106 -0.922106,-0.922106 z m 5.276842,0.184737 c -0.407368,0 -0.737368,0.33 -0.737368,0.737369 0,0.407368 0.33,0.737368 0.737368,0.737368 0.407369,0 0.737369,-0.33 0.737369,-0.737368 0,-0.407369 -0.33,-0.737369 -0.737369,-0.737369 z m 5.276843,0.09632 c -0.353685,0 -0.641053,0.287368 -0.641053,0.641053 0,0.353684 0.287368,0.641052 0.641053,0.641052 0.353684,0 0.641052,-0.287368 0.641052,-0.641052 0,-0.355264 -0.285789,-0.641053 -0.641052,-0.641053 z M 3.61579,8.1552673 c -0.407369,0 -0.737369,0.33 -0.737369,0.737369 0,0.407368 0.33,0.737368 0.737369,0.737368 0.407368,0 0.737368,-0.33 0.737368,-0.737368 0,-0.407369 -0.33,-0.737369 -0.737368,-0.737369 z m 5.276842,-0.184737 c -0.508421,0 -0.922106,0.412106 -0.922106,0.922106 0,0.508421 0.412106,0.922105 0.922106,0.922105 0.508421,0 0.922105,-0.412105 0.922105,-0.922105 -0.0016,-0.51 -0.413684,-0.922106 -0.922105,-0.922106 z m 5.276842,0 c -0.508421,0 -0.922105,0.412106 -0.922105,0.922106 0,0.508421 0.412105,0.922105 0.922105,0.922105 0.508421,0 0.922105,-0.412105 0.922105,-0.922105 0,-0.51 -0.413684,-0.922106 -0.922105,-0.922106 z m 5.276842,-0.09158 c -0.560526,0 -1.013684,0.453157 -1.013684,1.013684 0,0.560526 0.453158,1.013684 1.013684,1.013684 0.560527,0 1.013684,-0.453158 1.013684,-1.013684 0,-0.560527 -0.454736,-1.013684 -1.013684,-1.013684 z m 5.276842,-0.461053 c -0.814736,0 -1.474736,0.66 -1.474736,1.474737 0,0.814737 0.66,1.4747367 1.474736,1.4747367 0.814737,0 1.474737,-0.6599997 1.474737,-1.4747367 0,-0.814737 -0.66,-1.474737 -1.474737,-1.474737 z m 5.276843,-0.311053 c -0.985264,0 -1.784211,0.798948 -1.784211,1.784211 0,0.985263 0.798947,1.7842097 1.784211,1.7842097 0.985263,0 1.78421,-0.7989467 1.78421,-1.7842097 0,-0.985263 -0.798947,-1.784211 -1.78421,-1.784211 z M 51.107369,28.215789 c -0.985263,0 -1.78421,0.798947 -1.78421,1.784211 0,0.985263 0.798947,1.78421 1.78421,1.78421 0.985264,0 1.784211,-0.798947 1.784211,-1.78421 0,-0.985264 -0.797368,-1.784211 -1.784211,-1.784211 z M 35.276843,7.4178943 c -0.814737,0 -1.474737,0.66 -1.474737,1.474737 0,0.814737 0.66,1.4747367 1.474737,1.4747367 0.814737,0 1.474737,-0.6599997 1.474737,-1.4747367 0,-0.814737 -0.66,-1.474737 -1.474737,-1.474737 z m 5.276842,0.461053 c -0.560526,0 -1.013684,0.453157 -1.013684,1.013684 0,0.560526 0.453158,1.013684 1.013684,1.013684 0.560526,0 1.013684,-0.453158 1.013684,-1.013684 0,-0.560527 -0.453158,-1.013684 -1.013684,-1.013684 z m 5.276842,0.09158 c -0.508421,0 -0.922105,0.412106 -0.922105,0.922106 0,0.508421 0.412105,0.922105 0.922105,0.922105 0.51,0 0.922106,-0.412105 0.922106,-0.922105 0,-0.51 -0.412106,-0.922106 -0.922106,-0.922106 z m 5.276842,0 c -0.508421,0 -0.922105,0.412106 -0.922105,0.922106 0,0.508421 0.412105,0.922105 0.922105,0.922105 0.51,0 0.922106,-0.412105 0.922106,-0.922105 0,-0.51 -0.412106,-0.922106 -0.922106,-0.922106 z m 5.276843,0.184737 c -0.407369,0 -0.737369,0.33 -0.737369,0.737369 0,0.407368 0.33,0.737368 0.737369,0.737368 0.407368,0 0.737368,-0.33 0.737368,-0.737368 0,-0.407369 -0.33,-0.737369 -0.737368,-0.737369 z M 3.61579,13.24737 c -0.508422,0 -0.922106,0.412105 -0.922106,0.922105 0,0.508421 0.412106,0.922105 0.922106,0.922105 0.508421,0 0.922105,-0.412105 0.922105,-0.922105 -0.0016,-0.51 -0.413684,-0.922105 -0.922105,-0.922105 z m 5.276842,0 c -0.508421,0 -0.922106,0.412105 -0.922106,0.922105 0,0.508421 0.412106,0.922105 0.922106,0.922105 0.508421,0 0.922105,-0.412105 0.922105,-0.922105 -0.0016,-0.51 -0.413684,-0.922105 -0.922105,-0.922105 z m 5.276842,-0.09158 c -0.560526,0 -1.013684,0.453158 -1.013684,1.013684 0,0.560526 0.453158,1.013684 1.013684,1.013684 0.560526,0 1.013684,-0.453158 1.013684,-1.013684 0,-0.560526 -0.454737,-1.013684 -1.013684,-1.013684 z m 5.276842,-0.314211 c -0.732631,0 -1.327895,0.593684 -1.327895,1.327895 0,0.734211 0.593685,1.327895 1.327895,1.327895 0.734211,0 1.327895,-0.593684 1.327895,-1.327895 0,-0.734211 -0.595263,-1.327895 -1.327895,-1.327895 z m 5.276842,-0.456316 c -0.985263,0 -1.78421,0.798948 -1.78421,1.784211 0,0.985263 0.798947,1.784211 1.78421,1.784211 0.985264,0 1.784211,-0.798948 1.784211,-1.784211 0,-0.985263 -0.798947,-1.784211 -1.784211,-1.784211 z m 5.276843,-0.281052 c -1.14,0 -2.065264,0.925263 -2.065264,2.065263 0,1.14 0.925264,2.065263 2.065264,2.065263 1.14,0 2.065263,-0.925263 2.065263,-2.065263 0,-1.141579 -0.925263,-2.065263 -2.065263,-2.065263 z m 5.276842,0.281052 c -0.985263,0 -1.784211,0.798948 -1.784211,1.784211 0,0.985263 0.798948,1.784211 1.784211,1.784211 0.985263,0 1.78421,-0.798948 1.78421,-1.784211 0,-0.985263 -0.798947,-1.784211 -1.78421,-1.784211 z m 5.276842,0.456315 c -0.732632,0 -1.327895,0.593684 -1.327895,1.327895 0,0.734211 0.593684,1.327895 1.327895,1.327895 0.734211,0 1.327895,-0.593684 1.327895,-1.327895 0,-0.734211 -0.595263,-1.327895 -1.327895,-1.327895 z m 5.276842,0.314211 c -0.560526,0 -1.013684,0.453158 -1.013684,1.013684 0,0.560526 0.453158,1.013684 1.013684,1.013684 0.560527,0 1.013684,-0.453158 1.013684,-1.013684 0,-0.560526 -0.453157,-1.013684 -1.013684,-1.013684 z m 5.276842,0.09158 c -0.508421,0 -0.922105,0.412105 -0.922105,0.922105 0,0.508421 0.412105,0.922105 0.922105,0.922105 0.51,0 0.922106,-0.412105 0.922106,-0.922105 0,-0.51 -0.412106,-0.922105 -0.922106,-0.922105 z m 5.276843,0 c -0.508421,0 -0.922106,0.412105 -0.922106,0.922105 0,0.508421 0.412106,0.922105 0.922106,0.922105 0.51,0 0.922105,-0.412105 0.922105,-0.922105 0,-0.51 -0.412105,-0.922105 -0.922105,-0.922105 z M 3.61579,18.524211 c -0.508422,0 -0.922106,0.412105 -0.922106,0.922105 0,0.51 0.412106,0.922105 0.922106,0.922105 0.508421,0 0.922105,-0.412105 0.922105,-0.922105 0,-0.51 -0.413684,-0.922105 -0.922105,-0.922105 z m 5.276842,-0.09158 c -0.560527,0 -1.013684,0.453158 -1.013684,1.013684 0,0.560527 0.453157,1.013684 1.013684,1.013684 0.560526,0 1.013684,-0.453157 1.013684,-1.013684 0,-0.560526 -0.454737,-1.013684 -1.013684,-1.013684 z m 5.276842,-0.314211 c -0.732632,0 -1.326316,0.595264 -1.326316,1.327895 0,0.732632 0.593684,1.327895 1.326316,1.327895 0.732632,0 1.326316,-0.595263 1.326316,-1.327895 0,-0.732631 -0.593684,-1.327895 -1.326316,-1.327895 z m 5.276842,-0.146842 c -0.814737,0 -1.474737,0.66 -1.474737,1.474737 0,0.814737 0.66,1.474737 1.474737,1.474737 0.814737,0 1.474737,-0.66 1.474737,-1.474737 0,-0.814737 -0.66,-1.474737 -1.474737,-1.474737 z m 21.107369,0 c -0.814737,0 -1.474737,0.66 -1.474737,1.474737 0,0.814737 0.66,1.474737 1.474737,1.474737 0.814737,0 1.474737,-0.66 1.474737,-1.474737 0,-0.814737 -0.66,-1.474737 -1.474737,-1.474737 z m 5.276842,0.146842 c -0.732631,0 -1.326316,0.595264 -1.326316,1.327895 0,0.732632 0.593685,1.327895 1.326316,1.327895 0.732632,0 1.326316,-0.595263 1.326316,-1.327895 0,-0.732631 -0.593684,-1.327895 -1.326316,-1.327895 z m 5.276842,0.314211 c -0.560526,0 -1.013684,0.453158 -1.013684,1.013684 0,0.560527 0.453158,1.013684 1.013684,1.013684 0.560527,0 1.013685,-0.453157 1.013685,-1.013684 0,-0.560526 -0.453158,-1.013684 -1.013685,-1.013684 z m 5.276843,0.09158 c -0.508421,0 -0.922106,0.412105 -0.922106,0.922105 0,0.51 0.413685,0.922105 0.922106,0.922105 0.508421,0 0.922105,-0.412105 0.922105,-0.922105 0,-0.51 -0.412105,-0.922105 -0.922105,-0.922105 z M 3.61579,23.709474 c -0.560527,0 -1.013685,0.453158 -1.013685,1.013684 0,0.560527 0.453158,1.013685 1.013685,1.013685 0.560526,0 1.013684,-0.453158 1.013684,-1.013685 0,-0.560526 -0.454737,-1.013684 -1.013684,-1.013684 z m 5.276842,-0.205263 c -0.672632,0 -1.218948,0.546316 -1.218948,1.218947 0,0.672632 0.546316,1.218948 1.218948,1.218948 0.672631,0 1.218947,-0.546316 1.218947,-1.218948 0,-0.672631 -0.546316,-1.218947 -1.218947,-1.218947 z m 10.553684,-0.743684 c -1.084737,0 -1.962631,0.879473 -1.962631,1.962631 0,1.083158 0.879473,1.962632 1.962631,1.962632 1.083158,0 1.962632,-0.879474 1.962632,-1.962632 0,-1.083158 -0.877895,-1.962631 -1.962632,-1.962631 z m 5.276842,-0.197369 c -1.192105,0 -2.16,0.966316 -2.16,2.16 0,1.193685 0.966316,2.16 2.16,2.16 1.192106,0 2.16,-0.966315 2.16,-2.16 0,-1.193684 -0.967894,-2.16 -2.16,-2.16 z m 10.553685,0 c -1.192105,0 -2.16,0.966316 -2.16,2.16 0,1.193685 0.966316,2.16 2.16,2.16 1.192105,0 2.16,-0.966315 2.16,-2.16 0,-1.193684 -0.967895,-2.16 -2.16,-2.16 z m 0,10.553685 c -1.192105,0 -2.16,0.966316 -2.16,2.16 0,1.193684 0.966316,2.16 2.16,2.16 1.192105,0 2.16,-0.966316 2.16,-2.16 0,-1.193684 -0.967895,-2.16 -2.16,-2.16 z m -10.553685,0 c -1.192105,0 -2.16,0.966316 -2.16,2.16 0,1.193684 0.966316,2.16 2.16,2.16 1.192106,0 2.16,-0.966316 2.16,-2.16 0,-1.193684 -0.967894,-2.16 -2.16,-2.16 z m 0,-5.491579 c -1.312105,0 -2.374737,1.06421 -2.374737,2.374737 0,1.310526 1.064211,2.374736 2.374737,2.374736 1.312106,0 2.374737,-1.06421 2.374737,-2.374736 0,-1.310527 -1.062631,-2.374737 -2.374737,-2.374737 z m 10.553685,0 c -1.312105,0 -2.374737,1.06421 -2.374737,2.374737 0,1.310526 1.06421,2.374736 2.374737,2.374736 1.312105,0 2.374737,-1.06421 2.374737,-2.374736 0,-1.310527 -1.062632,-2.374737 -2.374737,-2.374737 z m -5.276842,5.276842 c -1.312106,0 -2.374737,1.06421 -2.374737,2.374737 0,1.310526 1.06421,2.374737 2.374737,2.374737 1.312105,0 2.374737,-1.064211 2.374737,-2.374737 0,-1.310527 -1.062632,-2.374737 -2.374737,-2.374737 z m 0,-10.553685 c -1.312106,0 -2.374737,1.064211 -2.374737,2.374737 0,1.310527 1.06421,2.374737 2.374737,2.374737 1.312105,0 2.374737,-1.06421 2.374737,-2.374737 0,-1.310526 -1.062632,-2.374737 -2.374737,-2.374737 z m 0,5.038422 c -1.443158,0 -2.613158,1.17 -2.613158,2.613158 0,1.443158 1.17,2.613158 2.613158,2.613158 1.443157,0 2.613157,-1.17 2.613157,-2.613158 0,-1.443158 -1.17,-2.613158 -2.613157,-2.613158 z m 10.553684,-4.626317 c -1.084737,0 -1.962632,0.879473 -1.962632,1.962631 0,1.083158 0.879474,1.962632 1.962632,1.962632 1.083158,0 1.962632,-0.879474 1.962632,-1.962632 0,-1.083158 -0.877895,-1.962631 -1.962632,-1.962631 z m 5.276842,0.178421 c -0.985263,0 -1.78421,0.798947 -1.78421,1.78421 0,0.985264 0.798947,1.784211 1.78421,1.784211 0.985263,0 1.784211,-0.798947 1.784211,-1.784211 0,-0.985263 -0.798948,-1.78421 -1.784211,-1.78421 z m 5.276842,0.565263 c -0.672631,0 -1.218947,0.546316 -1.218947,1.218947 0,0.672632 0.546316,1.218948 1.218947,1.218948 0.672632,0 1.218948,-0.546316 1.218948,-1.218948 0,-0.672631 -0.544737,-1.218947 -1.218948,-1.218947 z m 5.276843,0.205263 c -0.560527,0 -1.013685,0.453158 -1.013685,1.013684 0,0.560527 0.454737,1.013685 1.013685,1.013685 0.558947,0 1.013684,-0.453158 1.013684,-1.013685 0,-0.560526 -0.453158,-1.013684 -1.013684,-1.013684 z M 3.61579,28.885263 C 3,28.885263 2.501053,29.38421 2.501053,30 c 0,0.615789 0.498947,1.114736 1.114737,1.114736 0.615789,0 1.114736,-0.498947 1.114736,-1.114736 0,-0.61579 -0.498947,-1.114737 -1.114736,-1.114737 z m 5.276842,-0.669474 c -0.985263,0 -1.784211,0.798947 -1.784211,1.784211 0,0.985263 0.798948,1.78421 1.784211,1.78421 0.985263,0 1.78421,-0.798947 1.78421,-1.78421 0,-0.985264 -0.798947,-1.784211 -1.78421,-1.784211 z m 5.276842,-0.281053 c -1.14,0 -2.065263,0.925264 -2.065263,2.065264 0,1.14 0.925263,2.065263 2.065263,2.065263 1.14,0 2.065263,-0.925263 2.065263,-2.065263 0,-1.14 -0.925263,-2.065264 -2.065263,-2.065264 z m 5.276842,-0.206842 c -1.255263,0 -2.272105,1.016842 -2.272105,2.272106 0,1.255263 1.016842,2.272105 2.272105,2.272105 1.255263,0 2.272105,-1.016842 2.272105,-2.272105 0,-1.255264 -1.016842,-2.272106 -2.272105,-2.272106 z m 21.107369,0 c -1.255263,0 -2.272105,1.016842 -2.272105,2.272106 0,1.255263 1.016842,2.272105 2.272105,2.272105 1.255263,0 2.272105,-1.016842 2.272105,-2.272105 0,-1.255264 -1.016842,-2.272106 -2.272105,-2.272106 z m 5.276842,0.206842 c -1.14,0 -2.065263,0.925264 -2.065263,2.065264 0,1.14 0.925263,2.065263 2.065263,2.065263 1.14,0 2.065263,-0.925263 2.065263,-2.065263 0,-1.14 -0.923684,-2.065264 -2.065263,-2.065264 z M 3.61579,34.263158 c -0.560527,0 -1.013685,0.453157 -1.013685,1.013684 0,0.560526 0.453158,1.013684 1.013685,1.013684 0.560526,0 1.013684,-0.453158 1.013684,-1.013684 0,-0.560527 -0.454737,-1.013684 -1.013684,-1.013684 z m 5.276842,-0.205264 c -0.672632,0 -1.218948,0.546316 -1.218948,1.218948 0,0.672631 0.546316,1.218947 1.218948,1.218947 0.672631,0 1.218947,-0.546316 1.218947,-1.218947 0,-0.672632 -0.546316,-1.218948 -1.218947,-1.218948 z m 5.276842,-0.565263 c -0.985263,0 -1.784211,0.798948 -1.784211,1.784211 0,0.985263 0.798948,1.78421 1.784211,1.78421 0.985263,0 1.784211,-0.798947 1.784211,-1.78421 0,-0.985263 -0.798948,-1.784211 -1.784211,-1.784211 z m 0,-10.553684 c -0.985263,0 -1.784211,0.798947 -1.784211,1.78421 0,0.985264 0.798948,1.784211 1.784211,1.784211 0.985263,0 1.784211,-0.798947 1.784211,-1.784211 0,-0.985263 -0.798948,-1.78421 -1.784211,-1.78421 z m 5.276842,10.375263 c -1.084737,0 -1.962631,0.879474 -1.962631,1.962632 0,1.083158 0.879473,1.962631 1.962631,1.962631 1.083158,0 1.962632,-0.879473 1.962632,-1.962631 0,-1.083158 -0.877895,-1.962632 -1.962632,-1.962632 z M 37.239474,19.446315 c 0,-1.084737 -0.879473,-1.962631 -1.962631,-1.962631 -1.083158,0 -1.962632,0.879473 -1.962632,1.962631 0,1.083158 0.879474,1.962632 1.962632,1.962632 1.083158,0 1.962631,-0.879474 1.962631,-1.962632 z m -4.967368,0 c 0,-1.255263 -1.016842,-2.272105 -2.272105,-2.272105 -1.255264,0 -2.272106,1.016842 -2.272106,2.272105 0,1.255263 1.016842,2.272105 2.272106,2.272105 1.255263,0 2.272105,-1.016842 2.272105,-2.272105 z m -5.586316,0 c 0,-1.084737 -0.879474,-1.962631 -1.962632,-1.962631 -1.083158,0 -1.962631,0.879473 -1.962631,1.962631 0,1.083158 0.879473,1.962632 1.962631,1.962632 1.083158,0 1.962632,-0.879474 1.962632,-1.962632 z m 10.553684,21.107369 c 0,-1.084737 -0.879473,-1.962632 -1.962631,-1.962632 -1.083158,0 -1.962632,0.879474 -1.962632,1.962632 0,1.083158 0.879474,1.962632 1.962632,1.962632 1.083158,0 1.962631,-0.877895 1.962631,-1.962632 z m -4.967368,0 c 0,-1.255263 -1.016842,-2.272105 -2.272105,-2.272105 -1.255264,0 -2.272106,1.016842 -2.272106,2.272105 0,1.255263 1.016842,2.272105 2.272106,2.272105 1.255263,0 2.272105,-1.016842 2.272105,-2.272105 z m -5.586316,0 c 0,-1.084737 -0.879474,-1.962632 -1.962632,-1.962632 -1.083158,0 -1.962631,0.879474 -1.962631,1.962632 0,1.083158 0.879473,1.962632 1.962631,1.962632 1.083158,0 1.962632,-0.877895 1.962632,-1.962632 z M 40.553685,33.31421 c -1.084737,0 -1.962632,0.879474 -1.962632,1.962632 0,1.083158 0.879474,1.962631 1.962632,1.962631 1.083158,0 1.962632,-0.879473 1.962632,-1.962631 0,-1.083158 -0.877895,-1.962632 -1.962632,-1.962632 z m 5.276842,0.178421 c -0.985263,0 -1.78421,0.798948 -1.78421,1.784211 0,0.985263 0.798947,1.78421 1.78421,1.78421 0.985263,0 1.784211,-0.798947 1.784211,-1.78421 0,-0.985263 -0.798948,-1.784211 -1.784211,-1.784211 z m 5.276842,0.565263 c -0.672631,0 -1.218947,0.546316 -1.218947,1.218948 0,0.672631 0.546316,1.218947 1.218947,1.218947 0.672632,0 1.218948,-0.546316 1.218948,-1.218947 0,-0.672632 -0.544737,-1.218948 -1.218948,-1.218948 z m 5.276843,0.205264 c -0.560527,0 -1.013685,0.453157 -1.013685,1.013684 0,0.560526 0.453158,1.013684 1.013685,1.013684 0.560526,0 1.013684,-0.453158 1.013684,-1.013684 0,-0.560527 -0.453158,-1.013684 -1.013684,-1.013684 z M 3.61579,39.631579 c -0.508422,0 -0.922106,0.412105 -0.922106,0.922105 0,0.51 0.412106,0.922105 0.922106,0.922105 0.508421,0 0.922105,-0.412105 0.922105,-0.922105 0,-0.51 -0.413684,-0.922105 -0.922105,-0.922105 z m 5.276842,-0.09158 c -0.560527,0 -1.013684,0.453158 -1.013684,1.013684 0,0.560526 0.453157,1.013684 1.013684,1.013684 0.560526,0 1.013684,-0.453158 1.013684,-1.013684 0,-0.560526 -0.454737,-1.013684 -1.013684,-1.013684 z m 5.276842,-0.314211 c -0.732632,0 -1.326316,0.595263 -1.326316,1.327895 0,0.732632 0.593684,1.327895 1.326316,1.327895 0.732632,0 1.326316,-0.595263 1.326316,-1.327895 0,-0.732632 -0.593684,-1.327895 -1.326316,-1.327895 z m 5.276842,-0.146842 c -0.814737,0 -1.474737,0.66 -1.474737,1.474737 0,0.814737 0.66,1.474737 1.474737,1.474737 0.814737,0 1.474737,-0.66 1.474737,-1.474737 0,-0.814737 -0.66,-1.474737 -1.474737,-1.474737 z m 21.107369,0 c -0.814737,0 -1.474737,0.66 -1.474737,1.474737 0,0.814737 0.66,1.474737 1.474737,1.474737 0.814737,0 1.474737,-0.66 1.474737,-1.474737 0,-0.814737 -0.66,-1.474737 -1.474737,-1.474737 z m 5.276842,0.146842 c -0.732631,0 -1.326316,0.595263 -1.326316,1.327895 0,0.732632 0.593685,1.327895 1.326316,1.327895 0.732632,0 1.326316,-0.595263 1.326316,-1.327895 0,-0.732632 -0.593684,-1.327895 -1.326316,-1.327895 z m 5.276842,0.314211 c -0.560526,0 -1.013684,0.453158 -1.013684,1.013684 0,0.560526 0.453158,1.013684 1.013684,1.013684 0.560527,0 1.013685,-0.453158 1.013685,-1.013684 0,-0.560526 -0.453158,-1.013684 -1.013685,-1.013684 z m 5.276843,0.09158 c -0.508421,0 -0.922106,0.412105 -0.922106,0.922105 0,0.51 0.412106,0.922105 0.922106,0.922105 0.51,0 0.922105,-0.412105 0.922105,-0.922105 0,-0.51 -0.412105,-0.922105 -0.922105,-0.922105 z M 3.61579,44.908421 c -0.508422,0 -0.922106,0.412105 -0.922106,0.922105 0,0.508421 0.412106,0.922106 0.922106,0.922106 0.508421,0 0.922105,-0.412106 0.922105,-0.922106 -0.0016,-0.508421 -0.413684,-0.922105 -0.922105,-0.922105 z m 5.276842,0 c -0.508421,0 -0.922106,0.412105 -0.922106,0.922105 0,0.508421 0.412106,0.922106 0.922106,0.922106 0.508421,0 0.922105,-0.412106 0.922105,-0.922106 -0.0016,-0.508421 -0.413684,-0.922105 -0.922105,-0.922105 z m 5.276842,-0.09158 c -0.560526,0 -1.013684,0.453158 -1.013684,1.013684 0,0.560527 0.453158,1.013684 1.013684,1.013684 0.560526,0 1.013684,-0.453157 1.013684,-1.013684 0,-0.558947 -0.454737,-1.013684 -1.013684,-1.013684 z m 5.276842,-0.312632 c -0.732631,0 -1.327895,0.593685 -1.327895,1.327895 0,0.732632 0.593685,1.327895 1.327895,1.327895 0.734211,0 1.327895,-0.593684 1.327895,-1.327895 0,-0.73421 -0.595263,-1.327895 -1.327895,-1.327895 z m 5.276842,-0.457894 c -0.985263,0 -1.78421,0.798947 -1.78421,1.78421 0,0.985263 0.798947,1.784211 1.78421,1.784211 0.985264,0 1.784211,-0.798948 1.784211,-1.784211 0,-0.985263 -0.798947,-1.78421 -1.784211,-1.78421 z m 5.276843,-0.281053 c -1.14,0 -2.065264,0.925263 -2.065264,2.065263 0,1.14 0.925264,2.065263 2.065264,2.065263 1.14,0 2.065263,-0.925263 2.065263,-2.065263 0,-1.14 -0.925263,-2.065263 -2.065263,-2.065263 z m 5.276842,0.281053 c -0.985263,0 -1.784211,0.798947 -1.784211,1.78421 0,0.985263 0.798948,1.784211 1.784211,1.784211 0.985263,0 1.78421,-0.798948 1.78421,-1.784211 0,-0.985263 -0.798947,-1.78421 -1.78421,-1.78421 z m 5.276842,0.457894 c -0.732632,0 -1.327895,0.593685 -1.327895,1.327895 0,0.732632 0.593684,1.327895 1.327895,1.327895 0.734211,0 1.327895,-0.593684 1.327895,-1.327895 0,-0.73421 -0.595263,-1.327895 -1.327895,-1.327895 z m 5.276842,0.312632 c -0.560526,0 -1.013684,0.453158 -1.013684,1.013684 0,0.560527 0.453158,1.013684 1.013684,1.013684 0.560527,0 1.013684,-0.453157 1.013684,-1.013684 0,-0.558947 -0.453157,-1.013684 -1.013684,-1.013684 z m 5.276842,0.09158 c -0.508421,0 -0.922105,0.412105 -0.922105,0.922105 0,0.508421 0.412105,0.922106 0.922105,0.922106 0.51,0 0.922106,-0.412106 0.922106,-0.922106 0,-0.508421 -0.412106,-0.922105 -0.922106,-0.922105 z m 5.276843,0 c -0.508421,0 -0.922106,0.412105 -0.922106,0.922105 0,0.508421 0.412106,0.922106 0.922106,0.922106 0.51,0 0.922105,-0.412106 0.922105,-0.922106 0,-0.508421 -0.412105,-0.922105 -0.922105,-0.922105 z M 3.61579,50.37 c -0.407369,0 -0.737369,0.33 -0.737369,0.737368 0,0.407369 0.33,0.737369 0.737369,0.737369 0.407368,0 0.737368,-0.33 0.737368,-0.737369 C 4.353158,50.7 4.023158,50.37 3.61579,50.37 Z m 5.276842,-0.183158 c -0.508421,0 -0.922106,0.412105 -0.922106,0.922105 0,0.51 0.412106,0.922106 0.922106,0.922106 0.508421,0 0.922105,-0.412106 0.922105,-0.922106 0,-0.51 -0.413684,-0.922105 -0.922105,-0.922105 z m 5.276842,0 c -0.508421,0 -0.922105,0.412105 -0.922105,0.922105 0,0.51 0.412105,0.922106 0.922105,0.922106 0.508421,0 0.922105,-0.412106 0.922105,-0.922106 0,-0.51 -0.413684,-0.922105 -0.922105,-0.922105 z m 5.276842,-0.09316 c -0.560526,0 -1.013684,0.453158 -1.013684,1.013684 0,0.560527 0.453158,1.013685 1.013684,1.013685 0.560527,0 1.013684,-0.453158 1.013684,-1.013685 0,-0.560526 -0.454736,-1.013684 -1.013684,-1.013684 z m 5.276842,-0.461052 c -0.814736,0 -1.474736,0.66 -1.474736,1.474736 0,0.814737 0.66,1.474737 1.474736,1.474737 0.814737,0 1.474737,-0.66 1.474737,-1.474737 0,-0.814736 -0.66,-1.474736 -1.474737,-1.474736 z m 5.276843,-0.309474 c -0.985264,0 -1.784211,0.798947 -1.784211,1.78421 0,0.985264 0.798947,1.784211 1.784211,1.784211 0.985263,0 1.78421,-0.798947 1.78421,-1.784211 0,-0.985263 -0.798947,-1.78421 -1.78421,-1.78421 z m 5.276842,0.309474 c -0.814737,0 -1.474737,0.66 -1.474737,1.474736 0,0.814737 0.66,1.474737 1.474737,1.474737 0.814737,0 1.474737,-0.66 1.474737,-1.474737 0,-0.814736 -0.66,-1.474736 -1.474737,-1.474736 z m 5.276842,0.461052 c -0.560526,0 -1.013684,0.453158 -1.013684,1.013684 0,0.560527 0.453158,1.013685 1.013684,1.013685 0.560526,0 1.013684,-0.453158 1.013684,-1.013685 0,-0.560526 -0.453158,-1.013684 -1.013684,-1.013684 z m 5.276842,0.09316 c -0.508421,0 -0.922105,0.412105 -0.922105,0.922105 0,0.51 0.412105,0.922106 0.922105,0.922106 0.51,0 0.922106,-0.412106 0.922106,-0.922106 0,-0.51 -0.412106,-0.922105 -0.922106,-0.922105 z m 5.276842,0 c -0.508421,0 -0.922105,0.412105 -0.922105,0.922105 0,0.51 0.412105,0.922106 0.922105,0.922106 0.51,0 0.922106,-0.412106 0.922106,-0.922106 0,-0.51 -0.412106,-0.922105 -0.922106,-0.922105 z M 56.384212,50.37 c -0.407369,0 -0.737369,0.33 -0.737369,0.737368 0,0.407369 0.33,0.737369 0.737369,0.737369 0.407368,0 0.737368,-0.33 0.737368,-0.737369 C 57.12158,50.7 56.79158,50.37 56.384212,50.37 Z M 3.61579,55.743158 c -0.353685,0 -0.641053,0.287368 -0.641053,0.641053 0,0.353684 0.287368,0.641052 0.641053,0.641052 0.353684,0 0.641052,-0.287368 0.641052,-0.641052 0,-0.353685 -0.287368,-0.641053 -0.641052,-0.641053 z m 5.276842,-0.09632 c -0.407369,0 -0.737369,0.33 -0.737369,0.737369 0,0.407368 0.33,0.737368 0.737369,0.737368 0.407368,0 0.737368,-0.33 0.737368,-0.737368 0,-0.407369 -0.33,-0.737369 -0.737368,-0.737369 z m 5.276842,-0.183158 c -0.508421,0 -0.922105,0.412106 -0.922105,0.922106 0,0.508421 0.412105,0.922105 0.922105,0.922105 0.508421,0 0.922105,-0.412105 0.922105,-0.922105 0,-0.51 -0.413684,-0.922106 -0.922105,-0.922106 z m 5.276842,0 c -0.508421,0 -0.922105,0.412106 -0.922105,0.922106 0,0.508421 0.412105,0.922105 0.922105,0.922105 0.51,0 0.922105,-0.413684 0.922105,-0.923684 0,-0.508421 -0.413684,-0.920527 -0.922105,-0.920527 z m 5.276842,-0.09316 c -0.560526,0 -1.013684,0.453158 -1.013684,1.013685 0,0.560526 0.453158,1.013684 1.013684,1.013684 0.560527,0 1.013685,-0.453158 1.013685,-1.013684 0,-0.558948 -0.453158,-1.013685 -1.013685,-1.013685 z m 5.276843,-0.101052 c -0.61579,0 -1.114737,0.498947 -1.114737,1.114737 0,0.615789 0.498947,1.114737 1.114737,1.114737 0.615789,0 1.114736,-0.498948 1.114736,-1.114737 0,-0.61579 -0.498947,-1.114737 -1.114736,-1.114737 z m 5.276842,0.101052 c -0.560527,0 -1.013684,0.453158 -1.013684,1.013685 0,0.560526 0.453157,1.013684 1.013684,1.013684 0.560526,0 1.013684,-0.453158 1.013684,-1.013684 0,-0.558948 -0.453158,-1.013685 -1.013684,-1.013685 z m 5.276842,0.09316 c -0.508421,0 -0.922105,0.412106 -0.922105,0.922106 0,0.508421 0.412105,0.922105 0.922105,0.922105 0.508421,0 0.922105,-0.412105 0.922105,-0.922105 0,-0.51 -0.412105,-0.922106 -0.922105,-0.922106 z m 5.276842,0 c -0.508421,0 -0.922105,0.412106 -0.922105,0.922106 0,0.508421 0.412105,0.922105 0.922105,0.922105 0.51,0 0.922106,-0.412105 0.922106,-0.922105 0,-0.51 -0.412106,-0.922106 -0.922106,-0.922106 z m 5.276842,0.183158 c -0.407368,0 -0.737368,0.33 -0.737368,0.737369 0,0.407368 0.33,0.737368 0.737368,0.737368 0.407369,0 0.737369,-0.33 0.737369,-0.737368 0,-0.407369 -0.33,-0.737369 -0.737369,-0.737369 z m 5.276843,0.09632 c -0.353685,0 -0.641053,0.287368 -0.641053,0.641053 0,0.353684 0.287368,0.641052 0.641053,0.641052 0.353684,0 0.641052,-0.287368 0.641052,-0.641052 0,-0.353685 -0.285789,-0.641053 -0.641052,-0.641053 z"
     style="fill:url(#SVGID_2_)"
     inkscape:connector-curvature="0" /><path
     id="path4186"
     d="m 18,18 24.000001,0 0,24 L 18,42 Z"
     inkscape:connector-curvature="0"
     style="fill:none" /><g
     style="fill:#8f8f8f;fill-opacity:1;stroke:#160d83;stroke-width:1;stroke-linecap:round;stroke-linejoin:bevel;stroke-miterlimit:4;stroke-dasharray:3, 3;stroke-dashoffset:0;stroke-opacity:1"
     id="g37005"
     transform="matrix(0.1805197,0,0,0.18553282,-14.412313,137.74086)"
     inkscape:export-filename="C:\Users\tsteer\Documents\Docs_From_MS\Open Projects\Concert\gateway_minied.png"
     inkscape:export-xdpi="121.07623"
     inkscape:export-ydpi="121.07623"><g
       id="g37007"><path
         inkscape:connector-curvature="0"
         d="m 205.86918,-671.81247 -10.67625,4.17875 -10.21375,5.1575 -9.64625,6.08625 -9.0775,6.96375 -8.4075,7.7375 -7.68625,8.51 -6.86,9.1825 -5.93125,9.7475 -5.055,10.265 -4.075,10.6775 -3.095,10.98625 -2.06375,11.2975 -1.03125,11.3475 0.0512,11.45125 1.08375,11.39875 2.16625,11.245 3.14625,10.98625 4.17875,10.6775 5.10625,10.2125 6.035,9.6975 6.91125,9.13 7.7375,8.4075 8.45875,7.73625 9.13,6.86125 9.74875,6.035 10.21375,5.055 10.67625,4.12625 10.9875,3.14625 11.245,2.06375 11.39875,1.0825 11.45,0 11.34875,-1.0825 11.245,-2.06375 11.0375,-3.14625 10.62625,-4.12625 10.265,-5.055 9.74875,-6.035 9.12875,-6.86125 8.46,-7.73625 7.7375,-8.4075 6.91125,-9.13 6.035,-9.6975 5.10625,-10.2125 4.1775,-10.6775 3.1475,-10.98625 2.11375,-11.245 1.135,-11.39875 0,-11.45125 -0.98,-11.3475 -2.0625,-11.2975 -3.095,-10.98625 -4.075,-10.6775 -5.055,-10.265 -5.98375,-9.7475 -6.80875,-9.1825 -7.685,-8.51 -8.4075,-7.7375 -9.07875,-6.96375 -9.6975,-6.08625 -10.16125,-5.1575 -10.6775,-4.17875 0.0525,0"
         style="fill:#dfdfdf;fill-opacity:1;stroke:#1f1a17;stroke-width:0.61874998;stroke-linecap:butt;stroke-linejoin:miter;stroke-miterlimit:10;stroke-dasharray:none;stroke-opacity:1"
         id="path37009" /><path
         inkscape:connector-curvature="0"
         d="m 219.74418,-653.50122 -9.5425,2.9925 -9.18125,3.97125 -8.76875,4.84875 -8.2525,5.67375 -7.68625,6.4475 -7.01375,7.17 -6.2425,7.78875 -5.46625,8.4075 -4.6425,8.87125 -3.76625,9.285 -2.785,9.59375 -1.90875,9.8525 -0.87625,9.955 0.0512,10.0575 1.08375,9.95625 2.01125,9.8 2.94,9.59375 3.92,9.2325 4.745,8.77 5.6225,8.30375 6.345,7.7375 7.1175,7.06625 7.78875,6.2925 8.305,5.57125 8.87125,4.69375 9.23375,3.8175 9.59375,2.8875 9.8525,1.96 9.955,0.98 10.00625,0 9.955,-0.98 9.8525,-1.96 9.5425,-2.8875 9.28375,-3.8175 8.82125,-4.69375 8.355,-5.57125 7.78875,-6.2925 7.0675,-7.06625 6.395,-7.7375 5.6225,-8.30375 4.74625,-8.77 3.8675,-9.2325 2.9925,-9.59375 2.01125,-9.8 1.03125,-9.95625 0.10375,-10.0575 -0.92875,-9.955 -1.85625,-9.8525 -2.78625,-9.59375 -3.765,-9.285 -4.6425,-8.87125 -5.4675,-8.4075 -6.2925,-7.78875 -6.96375,-7.17 -7.685,-6.4475 -8.25375,-5.67375 -8.76875,-4.84875 -9.18125,-3.97125 -9.5425,-2.9925 0.0525,0"
         style="fill:#030303;fill-opacity:1;stroke:#1f1a17;stroke-width:0.61874998;stroke-linecap:butt;stroke-linejoin:miter;stroke-miterlimit:10;stroke-dasharray:none;stroke-opacity:1"
         id="path37011" /><path
         inkscape:connector-curvature="0"
         d="m 246.05043,-636.63372 0,4.38375 0.0525,0"
         style="fill:none;stroke:#1f1a17;stroke-width:0.61874998;stroke-linecap:butt;stroke-linejoin:miter;stroke-miterlimit:10;stroke-dasharray:none;stroke-opacity:1"
         id="path37013" /><path
         inkscape:connector-curvature="0"
         d="m 181.78043,-607.02622 -5.51875,7.58125 -4.6425,8.09875 -3.66125,8.61375 -2.6825,8.975 -1.7025,9.1825 -0.61875,9.3875 0.46375,9.33625 1.49625,9.2325 2.475,9.02625 3.5075,8.66625 4.48875,8.20125 5.36375,7.685 6.13875,7.015 6.96375,6.29375 7.58125,5.4675 8.20125,4.59 8.615,3.61125 8.975,2.63 9.18125,1.59875 9.3875,0.5675 9.33625,-0.515 9.2325,-1.54875 8.975,-2.57875 8.665,-3.55875 8.15,-4.4875 7.635,-5.41625 7.015,-6.24125 6.24125,-6.9625 5.36375,-7.635 4.53875,-8.20125 3.56,-8.665 2.57875,-9.02625 1.5475,-9.23375 0.46375,-9.33625 -0.515,-9.33625 -1.59875,-9.2325 -2.63125,-8.975 -3.66125,-8.61375 -4.54,-8.15 -5.4675,-7.63375 -6.2925,-6.9125 -7.015,-6.19 -7.68625,-5.36375 -8.20125,-4.4875 -8.665,-3.5075 -9.0275,-2.47625 -9.2325,-1.495 -9.33625,-0.465 -9.33625,0.61875 -9.2325,1.7025 -8.92375,2.6825 -8.61375,3.66125 -8.15,4.6425 -7.53125,5.52 0.0513,0"
         style="fill:#7d7d7d;fill-opacity:1;stroke:#1f1a17;stroke-width:0.61874998;stroke-linecap:butt;stroke-linejoin:miter;stroke-miterlimit:10;stroke-dasharray:none;stroke-opacity:1"
         id="path37015" /><path
         inkscape:connector-curvature="0"
         d="m 278.08293,-674.33997 -6.24125,0 0.0512,0"
         style="fill:none;stroke:#1f1a17;stroke-width:0.61874998;stroke-linecap:butt;stroke-linejoin:miter;stroke-miterlimit:10;stroke-dasharray:none;stroke-opacity:1"
         id="path37017" /><path
         inkscape:connector-curvature="0"
         d="m 214.01918,-674.33997 -8.15,2.5275 0.0513,0"
         style="fill:none;stroke:#1f1a17;stroke-width:0.61874998;stroke-linecap:butt;stroke-linejoin:miter;stroke-miterlimit:10;stroke-dasharray:none;stroke-opacity:1"
         id="path37019" /><path
         inkscape:connector-curvature="0"
         d="m 286.23168,-663.81747 -80.3625,0 0.0513,0"
         style="fill:none;stroke:#1f1a17;stroke-width:0.61874998;stroke-linecap:butt;stroke-linejoin:miter;stroke-miterlimit:10;stroke-dasharray:none;stroke-opacity:1"
         id="path37021" /><path
         inkscape:connector-curvature="0"
         d="m 278.65043,-663.81747 0,-10.3675 0.0513,0"
         style="fill:none;stroke:#1f1a17;stroke-width:0.61874998;stroke-linecap:butt;stroke-linejoin:miter;stroke-miterlimit:10;stroke-dasharray:none;stroke-opacity:1"
         id="path37023" /><path
         inkscape:connector-curvature="0"
         d="m 213.45168,-663.81747 0,-10.3675 0.0512,0"
         style="fill:none;stroke:#1f1a17;stroke-width:0.61874998;stroke-linecap:butt;stroke-linejoin:miter;stroke-miterlimit:10;stroke-dasharray:none;stroke-opacity:1"
         id="path37025" /><path
         inkscape:connector-curvature="0"
         d="m 286.23168,-663.81747 0,-7.995 0.0525,0"
         style="fill:none;stroke:#1f1a17;stroke-width:0.61874998;stroke-linecap:butt;stroke-linejoin:miter;stroke-miterlimit:10;stroke-dasharray:none;stroke-opacity:1"
         id="path37027" /><path
         inkscape:connector-curvature="0"
         d="m 205.86918,-663.81747 0,-7.995 0.0513,0"
         style="fill:none;stroke:#1f1a17;stroke-width:0.61874998;stroke-linecap:butt;stroke-linejoin:miter;stroke-miterlimit:10;stroke-dasharray:none;stroke-opacity:1"
         id="path37029" /><path
         inkscape:connector-curvature="0"
         d="m 277.61793,-663.81747 0,-8.4075 0.0512,0"
         style="fill:none;stroke:#1f1a17;stroke-width:0.61874998;stroke-linecap:butt;stroke-linejoin:miter;stroke-miterlimit:10;stroke-dasharray:none;stroke-opacity:1"
         id="path37031" /><path
         inkscape:connector-curvature="0"
         d="m 214.48293,-663.81747 0,-8.4075 0.0525,0"
         style="fill:none;stroke:#1f1a17;stroke-width:0.61874998;stroke-linecap:butt;stroke-linejoin:miter;stroke-miterlimit:10;stroke-dasharray:none;stroke-opacity:1"
         id="path37033" /><path
         inkscape:connector-curvature="0"
         d="m 229.75168,-663.81747 32.59875,0 0.0512,0"
         style="fill:none;stroke:#1f1a17;stroke-width:0.61874998;stroke-linecap:butt;stroke-linejoin:miter;stroke-miterlimit:10;stroke-dasharray:none;stroke-opacity:1"
         id="path37035" /><path
         inkscape:connector-curvature="0"
         d="m 214.48293,-672.22497 6.345,0 0.0512,0"
         style="fill:none;stroke:#1f1a17;stroke-width:0.61874998;stroke-linecap:butt;stroke-linejoin:miter;stroke-miterlimit:10;stroke-dasharray:none;stroke-opacity:1"
         id="path37037" /><path
         inkscape:connector-curvature="0"
         d="m 271.27418,-672.22497 6.34375,0 0.0512,0"
         style="fill:none;stroke:#1f1a17;stroke-width:0.61874998;stroke-linecap:butt;stroke-linejoin:miter;stroke-miterlimit:10;stroke-dasharray:none;stroke-opacity:1"
         id="path37039" /><path
         sodipodi:nodetypes="cccccccccccccccccccccccccccccccccc"
         inkscape:connector-curvature="0"
         id="path37041"
         d="m 271.32543,-672.22497 c -0.13045,-0.0567 0.14522,-0.50778 0.12526,-0.65785 0.19157,-2.06209 2.13325,-3.29834 4.05224,-3.5209 0.72208,0 1.44417,0 2.14062,0 2.88148,-0.229 5.72782,-0.71923 8.41559,-1.89136 2.69342,-1.23424 5.20171,-2.92414 7.13002,-5.20696 2.10603,-2.31065 3.67479,-5.11885 4.51865,-8.13959 0.75395,-1.82006 0.52734,-3.9792 0.92949,-5.80584 0.008,-2.14874 -0.0932,-4.43701 0,-6.5 -0.2893,-2.83053 -0.5471,-5.66249 -1.83714,-8.24441 -0.83793,-2.21413 -2.33108,-4.19985 -3.85107,-5.98503 -1.88037,-1.91158 -3.95388,-3.55449 -6.40698,-4.66931 -0.3196,-0.17803 -0.86885,-0.46655 -1.05731,-0.59875 -5.08689,-1.78486 -10.09379,-3.75333 -15.38391,-4.76547 -4.8873,-1.29401 -9.93796,-1.85992 -14.94496,-2.4557 -5.12786,-0.29913 -10.25573,-0.63271 -15.3836,-0.14403 -4.98171,0.1549 -9.91489,1.04351 -14.81571,1.87686 -4.98829,1.16816 -9.98525,2.30704 -14.75331,4.21949 -1.14895,0.41362 -2.57902,0.88485 -3.58601,1.26885 -2.61835,1.35124 -5.15255,2.78346 -7.14063,4.97142 -1.63536,1.58653 -2.88876,3.62961 -3.93265,5.63807 -1.08256,2.4538 -1.82849,4.98915 -1.91652,7.68386 -0.007,0.37122 -0.17674,0.92404 -0.0858,1.20415 -0.12173,2.06043 -0.0181,4.35172 -0.0525,6.5 0.21098,2.8366 0.58524,5.63625 1.75854,8.25504 1.24722,2.96407 3.2888,5.54151 5.65554,7.71286 2.32966,1.94878 5.07408,3.3855 8.01535,4.19171 1.78012,0.63224 3.75937,0.57822 5.59057,0.88414 0.69583,0 1.41792,0 2.14,0 -0.11511,0.008 0.53379,0.1408 0.6066,0.17651 2.0454,0.20865 3.38034,2.05216 3.59777,4.00224 -0.0791,2.69866 0.0386,5.62306 0.0196,8.4075 18.93201,0 35.23998,0 50.97449,0 0,-3.62266 -0.6415,-5.70884 -0.52222,-8.4075 z"
         style="fill:#dfdfdf;fill-opacity:1;stroke:#1f1a17;stroke-width:0.61874998;stroke-linecap:butt;stroke-linejoin:miter;stroke-miterlimit:10;stroke-dasharray:none;stroke-opacity:1" /><path
         inkscape:connector-curvature="0"
         d="m 220.26043,-674.33997 -6.24125,0 0.0512,0"
         style="fill:none;stroke:#1f1a17;stroke-width:0.61874998;stroke-linecap:butt;stroke-linejoin:miter;stroke-miterlimit:10;stroke-dasharray:none;stroke-opacity:1"
         id="path37043" /><path
         inkscape:connector-curvature="0"
         d="m 286.23168,-671.81247 -8.14875,-2.5275 0.0513,0"
         style="fill:none;stroke:#1f1a17;stroke-width:0.61874998;stroke-linecap:butt;stroke-linejoin:miter;stroke-miterlimit:10;stroke-dasharray:none;stroke-opacity:1"
         id="path37045" /><path
         inkscape:connector-curvature="0"
         d="m 335.54293,-522.84622 8.0475,0 0.0512,0"
         style="fill:none;stroke:#1f1a17;stroke-width:0.61874998;stroke-linecap:butt;stroke-linejoin:miter;stroke-miterlimit:10;stroke-dasharray:none;stroke-opacity:1"
         id="path37047" /><path
         inkscape:connector-curvature="0"
         d="m 333.53168,-517.58497 8.20125,0 0.0525,0"
         style="fill:none;stroke:#1f1a17;stroke-width:0.61874998;stroke-linecap:butt;stroke-linejoin:miter;stroke-miterlimit:10;stroke-dasharray:none;stroke-opacity:1"
         id="path37049" /><path
         inkscape:connector-curvature="0"
         d="m 158.56918,-517.58497 -8.20125,0 0.0513,0"
         style="fill:none;stroke:#1f1a17;stroke-width:0.61874998;stroke-linecap:butt;stroke-linejoin:miter;stroke-miterlimit:10;stroke-dasharray:none;stroke-opacity:1"
         id="path37051" /><path
         inkscape:connector-curvature="0"
         d="m 156.55793,-522.84622 -8.04625,0 0.0512,0"
         style="fill:none;stroke:#1f1a17;stroke-width:0.61874998;stroke-linecap:butt;stroke-linejoin:miter;stroke-miterlimit:10;stroke-dasharray:none;stroke-opacity:1"
         id="path37053" /><path
         inkscape:connector-curvature="0"
         d="m 219.74418,-616.92997 -7.375,3.6625 -6.9125,4.53875 -6.34375,5.36375 -5.57125,6.035 -4.84875,6.70625 -3.97125,7.2725 -3.095,7.68625 -2.115,7.99375 -1.08375,8.2025 -0.155,8.2525 0.92875,8.20125 1.8575,8.0475 2.8375,7.7875 3.76375,7.37625 4.6425,6.80875 5.41625,6.24125 6.19,5.52 6.75625,4.745 7.325,3.86875 7.68625,2.94 8.04625,2.01125 8.20125,1.0325 8.2525,0 8.2025,-1.0325 8.04625,-2.01125 7.685,-2.94 7.325,-3.86875 6.7575,-4.745 6.1375,-5.52 5.4675,-6.24125 4.6425,-6.80875 3.765,-7.37625 2.8375,-7.7875 1.85625,-8.0475 0.8775,-8.20125 -0.10375,-8.2525 -1.13375,-8.2025 -2.115,-7.99375 -3.04375,-7.68625 -3.9725,-7.2725 -4.8475,-6.70625 -5.6225,-6.035 -6.29375,-5.36375 -6.91125,-4.53875 -7.37625,-3.6625 0.0525,0"
         style="fill:none;stroke:#1f1a17;stroke-width:0.61874998;stroke-linecap:butt;stroke-linejoin:miter;stroke-miterlimit:10;stroke-dasharray:none;stroke-opacity:1"
         id="path37055" /><path
         inkscape:connector-curvature="0"
         d="m 210.30543,-568.08372 -0.51625,-2.57875 -1.49625,-2.2175 -2.2175,-1.49625 -2.63,-0.51625 -2.57875,0.51625 -2.21875,1.49625 -1.495,2.2175 -0.51625,2.57875 0.51625,2.63125 1.495,2.2175 2.21875,1.49625 2.57875,0.515 2.63,-0.515 2.2175,-1.49625 1.49625,-2.2175 0.51625,-2.63125 0.0513,0"
         style="fill:#000000;fill-opacity:1;stroke:#1f1a17;stroke-width:0.61874998;stroke-linecap:butt;stroke-linejoin:miter;stroke-miterlimit:10;stroke-dasharray:none;stroke-opacity:1"
         id="path37057" /><path
         inkscape:connector-curvature="0"
         d="m 218.19793,-525.47747 -0.51625,-2.57875 -1.49625,-2.21875 -2.2175,-1.495 -2.63125,-0.51625 -2.63,0.51625 -2.21875,1.495 -1.44375,2.21875 -0.51625,2.57875 0.51625,2.63125 1.44375,2.2175 2.21875,1.49625 2.63,0.515 2.63125,-0.515 2.2175,-1.49625 1.49625,-2.2175 0.51625,-2.63125 0.0512,0"
         style="fill:#000000;fill-opacity:1;stroke:#1f1a17;stroke-width:0.61874998;stroke-linecap:butt;stroke-linejoin:miter;stroke-miterlimit:10;stroke-dasharray:none;stroke-opacity:1"
         id="path37059" /><path
         inkscape:connector-curvature="0"
         d="m 252.85918,-509.69372 -0.515,-2.57875 -1.445,-2.2175 -2.2175,-1.49625 -2.63125,-0.51625 -2.63,0.51625 -2.21875,1.49625 -1.495,2.2175 -0.51625,2.57875 0.51625,2.63 1.495,2.21875 2.21875,1.495 2.63,0.51625 2.63125,-0.51625 2.2175,-1.495 1.445,-2.21875 0.515,-2.63 0.0512,0"
         style="fill:#000000;fill-opacity:1;stroke:#1f1a17;stroke-width:0.61874998;stroke-linecap:butt;stroke-linejoin:miter;stroke-miterlimit:10;stroke-dasharray:none;stroke-opacity:1"
         id="path37061" /><path
         inkscape:connector-curvature="0"
         d="m 297.06418,-562.25497 -0.515,-2.63 -1.49625,-2.21875 -2.2175,-1.495 -2.63125,-0.51625 -2.63125,0.51625 -2.2175,1.495 -1.44375,2.21875 -0.51625,2.63 0.51625,2.58 1.44375,2.2175 2.2175,1.49625 2.63125,0.515 2.63125,-0.515 2.2175,-1.49625 1.49625,-2.2175 0.515,-2.58 0.0512,0"
         style="fill:#000000;fill-opacity:1;stroke:#1f1a17;stroke-width:0.61874998;stroke-linecap:butt;stroke-linejoin:miter;stroke-miterlimit:10;stroke-dasharray:none;stroke-opacity:1"
         id="path37063" /><path
         inkscape:connector-curvature="0"
         d="m 287.57293,-525.47747 -0.515,-2.57875 -1.49625,-2.21875 -2.2175,-1.495 -2.58,-0.51625 -2.63,0.51625 -2.21875,1.495 -1.495,2.21875 -0.51625,2.57875 0.51625,2.63125 1.495,2.2175 2.21875,1.49625 2.63,0.515 2.58,-0.515 2.2175,-1.49625 1.49625,-2.2175 0.515,-2.63125 0.0525,0"
         style="fill:#000000;fill-opacity:1;stroke:#1f1a17;stroke-width:0.61874998;stroke-linecap:butt;stroke-linejoin:miter;stroke-miterlimit:10;stroke-dasharray:none;stroke-opacity:1"
         id="path37065" /><path
         inkscape:connector-curvature="0"
         d="m 219.74418,-616.92997 0,41.5225 0.0525,0"
         style="fill:none;stroke:#1f1a17;stroke-width:0.61874998;stroke-linecap:butt;stroke-linejoin:miter;stroke-miterlimit:10;stroke-dasharray:none;stroke-opacity:1"
         id="path37067" /><path
         inkscape:connector-curvature="0"
         d="m 272.35668,-616.92997 0,41.5225 0.0525,0"
         style="fill:none;stroke:#1f1a17;stroke-width:0.61874998;stroke-linecap:butt;stroke-linejoin:miter;stroke-miterlimit:10;stroke-dasharray:none;stroke-opacity:1"
         id="path37069" /><path
         inkscape:connector-curvature="0"
         d="m 219.74418,-575.40747 52.6125,0 0.0525,0"
         style="fill:none;stroke:#1f1a17;stroke-width:0.61874998;stroke-linecap:butt;stroke-linejoin:miter;stroke-miterlimit:10;stroke-dasharray:none;stroke-opacity:1"
         id="path37071" /><path
         inkscape:connector-curvature="0"
         d="m 211.75043,-678.15622 0,-18.93125 8.0975,0 2.6825,0.92875 0.9275,0.8775 0.8775,1.805 0,2.6825 -0.8775,1.805 -0.9275,0.92875 -2.6825,0.87625 -8.0975,0 0.05,0"
         style="fill:none;stroke:#1f1a17;stroke-width:0.61874998;stroke-linecap:butt;stroke-linejoin:miter;stroke-miterlimit:10;stroke-dasharray:none;stroke-opacity:1"
         id="path37073" /><path
         inkscape:connector-curvature="0"
         d="m 230.67918,-697.08747 0,13.515 0.8775,2.73375 1.805,1.805 2.735,0.8775 1.80375,0 2.6825,-0.8775 1.80625,-1.805 0.87625,-2.73375 0,-13.515 0.0512,0"
         style="fill:none;stroke:#1f1a17;stroke-width:0.61874998;stroke-linecap:butt;stroke-linejoin:miter;stroke-miterlimit:10;stroke-dasharray:none;stroke-opacity:1"
         id="path37075" /><path
         inkscape:connector-curvature="0"
         d="m 263.12418,-694.35247 -1.805,-1.80625 -2.73375,-0.92875 -3.55875,0 -2.735,0.92875 -1.805,1.80625 0,1.75375 0.92875,1.805 0.87625,0.9275 1.80625,0.8775 5.415,1.805 1.80625,0.92875 0.87625,0.8775 0.92875,1.805 0,2.73375 -1.805,1.805 -2.73375,0.8775 -3.55875,0 -2.735,-0.8775 -1.805,-1.805 0.0512,0"
         style="fill:none;stroke:#1f1a17;stroke-width:0.61874998;stroke-linecap:butt;stroke-linejoin:miter;stroke-miterlimit:10;stroke-dasharray:none;stroke-opacity:1"
         id="path37077" /><path
         inkscape:connector-curvature="0"
         d="m 268.53918,-678.15622 0,-18.93125 0.0525,0"
         style="fill:none;stroke:#1f1a17;stroke-width:0.61874998;stroke-linecap:butt;stroke-linejoin:miter;stroke-miterlimit:10;stroke-dasharray:none;stroke-opacity:1"
         id="path37079" /><path
         inkscape:connector-curvature="0"
         d="m 281.12543,-697.08747 0,18.93125 0.0525,0"
         style="fill:none;stroke:#1f1a17;stroke-width:0.61874998;stroke-linecap:butt;stroke-linejoin:miter;stroke-miterlimit:10;stroke-dasharray:none;stroke-opacity:1"
         id="path37081" /><path
         inkscape:connector-curvature="0"
         d="m 268.53918,-688.05997 12.58625,0 0.0525,0"
         style="fill:none;stroke:#1f1a17;stroke-width:0.61874998;stroke-linecap:butt;stroke-linejoin:miter;stroke-miterlimit:10;stroke-dasharray:none;stroke-opacity:1"
         id="path37083" /><path
         inkscape:connector-curvature="0"
         d="m 253.63293,-709.51747 0.92875,-2.32125 0.2575,-2.47625 -0.46375,-2.42375 -1.135,-2.21875 -0.7225,-0.4125 -0.825,0.155 -0.4125,0.7225 0.155,0.825 0.0513,0"
         style="fill:none;stroke:#1f1a17;stroke-width:0.61874998;stroke-linecap:butt;stroke-linejoin:miter;stroke-miterlimit:10;stroke-dasharray:none;stroke-opacity:1"
         id="path37085" /><path
         inkscape:connector-curvature="0"
         d="m 252.18918,-711.63247 0.36125,-3.095 -1.135,-2.94 0.0513,0"
         style="fill:none;stroke:#1f1a17;stroke-width:0.61874998;stroke-linecap:butt;stroke-linejoin:miter;stroke-miterlimit:10;stroke-dasharray:none;stroke-opacity:1"
         id="path37087" /><path
         inkscape:connector-curvature="0"
         d="m 252.18918,-711.63247 -2.27,-1.29 -0.825,-0.155 -0.67,0.51625 -0.10375,0.825 0.51625,0.67 3.30125,1.96125 0.825,0.1025 0.67,-0.515 0.0513,0"
         style="fill:none;stroke:#1f1a17;stroke-width:0.61874998;stroke-linecap:butt;stroke-linejoin:miter;stroke-miterlimit:10;stroke-dasharray:none;stroke-opacity:1"
         id="path37089" /><path
         inkscape:connector-curvature="0"
         d="m 240.99543,-721.07247 -0.4125,0.67125 0.155,0.825 0.7225,0.46375 0.825,-0.20625 0.0513,0"
         style="fill:none;stroke:#1f1a17;stroke-width:0.61874998;stroke-linecap:butt;stroke-linejoin:miter;stroke-miterlimit:10;stroke-dasharray:none;stroke-opacity:1"
         id="path37091" /><path
         inkscape:connector-curvature="0"
         d="m 244.96793,-720.40122 -2.6825,1.0825 0.0513,0"
         style="fill:none;stroke:#1f1a17;stroke-width:0.61874998;stroke-linecap:butt;stroke-linejoin:miter;stroke-miterlimit:10;stroke-dasharray:none;stroke-opacity:1"
         id="path37093" /><path
         inkscape:connector-curvature="0"
         d="m 244.96793,-720.40122 0,14.1325 0.0513,0"
         style="fill:none;stroke:#1f1a17;stroke-width:0.61874998;stroke-linecap:butt;stroke-linejoin:miter;stroke-miterlimit:10;stroke-dasharray:none;stroke-opacity:1"
         id="path37095" /><path
         inkscape:connector-curvature="0"
         d="m 244.96793,-706.26872 0.30875,0.77375 0.77375,0.36125 0.77375,-0.36125 0.31,-0.77375 0.0513,0"
         style="fill:none;stroke:#1f1a17;stroke-width:0.61874998;stroke-linecap:butt;stroke-linejoin:miter;stroke-miterlimit:10;stroke-dasharray:none;stroke-opacity:1"
         id="path37097" /><path
         inkscape:connector-curvature="0"
         d="m 247.13418,-706.26872 0,-14.1325 0.0513,0"
         style="fill:none;stroke:#1f1a17;stroke-width:0.61874998;stroke-linecap:butt;stroke-linejoin:miter;stroke-miterlimit:10;stroke-dasharray:none;stroke-opacity:1"
         id="path37099" /><path
         inkscape:connector-curvature="0"
         d="m 249.35293,-719.62747 -2.21875,-0.77375 0.0513,0"
         style="fill:none;stroke:#1f1a17;stroke-width:0.61874998;stroke-linecap:butt;stroke-linejoin:miter;stroke-miterlimit:10;stroke-dasharray:none;stroke-opacity:1"
         id="path37101" /><path
         inkscape:connector-curvature="0"
         d="m 249.35293,-719.62747 0.82375,0.1025 0.67125,-0.46375 0.1025,-0.8775 -0.515,-0.61875 0.0513,0"
         style="fill:none;stroke:#1f1a17;stroke-width:0.61874998;stroke-linecap:butt;stroke-linejoin:miter;stroke-miterlimit:10;stroke-dasharray:none;stroke-opacity:1"
         id="path37103" /><path
         inkscape:connector-curvature="0"
         d="m 250.43543,-721.48497 -2.32125,-0.9275 -2.47625,-0.25875 -2.42375,0.465 -2.21875,1.13375 0.0525,0"
         style="fill:none;stroke:#1f1a17;stroke-width:0.61874998;stroke-linecap:butt;stroke-linejoin:miter;stroke-miterlimit:10;stroke-dasharray:none;stroke-opacity:1"
         id="path37105" /><path
         inkscape:connector-curvature="0"
         d="m 238.46918,-718.28622 -0.92875,2.26875 -0.25875,2.47625 0.465,2.425 1.135,2.2175 0.67,0.46375 0.825,-0.20625 0.465,-0.67 -0.155,-0.82625 0.0513,0"
         style="fill:none;stroke:#1f1a17;stroke-width:0.61874998;stroke-linecap:butt;stroke-linejoin:miter;stroke-miterlimit:10;stroke-dasharray:none;stroke-opacity:1"
         id="path37107" /><path
         inkscape:connector-curvature="0"
         d="m 239.86043,-716.22372 -0.30875,3.14625 1.135,2.94 0.0513,0"
         style="fill:none;stroke:#1f1a17;stroke-width:0.61874998;stroke-linecap:butt;stroke-linejoin:miter;stroke-miterlimit:10;stroke-dasharray:none;stroke-opacity:1"
         id="path37109" /><path
         inkscape:connector-curvature="0"
         d="m 239.86043,-716.22372 2.3225,1.34125 0.825,0.1025 0.67,-0.515 0.10375,-0.825 -0.51625,-0.67125 -3.30125,-1.9075 -0.825,-0.10375 -0.67,0.51625 0.05,0"
         style="fill:none;stroke:#1f1a17;stroke-width:0.61874998;stroke-linecap:butt;stroke-linejoin:miter;stroke-miterlimit:10;stroke-dasharray:none;stroke-opacity:1"
         id="path37111" /><path
         inkscape:connector-curvature="0"
         d="m 256.98668,-713.90247 -0.51625,-3.40375 -1.5475,-3.04375 -2.425,-2.42375 -3.0425,-1.54875 -3.405,-0.56625 -3.40375,0.56625 -3.04375,1.54875 -2.42375,2.42375 -1.5475,3.04375 -0.51625,3.40375 0.51625,3.3525 1.5475,3.095 2.42375,2.425 3.04375,1.5475 3.40375,0.515 3.405,-0.515 3.0425,-1.5475 2.425,-2.425 1.5475,-3.095 0.51625,-3.3525 0.0513,0"
         style="fill:none;stroke:#1f1a17;stroke-width:0.61874998;stroke-linecap:butt;stroke-linejoin:miter;stroke-miterlimit:10;stroke-dasharray:none;stroke-opacity:1"
         id="path37113" /><path
         inkscape:connector-curvature="0"
         d="m 259.20418,-713.90247 -0.465,-3.40375 -1.28875,-3.19875 -2.115,-2.73375 -2.73375,-2.0625 -3.14625,-1.34125 -3.405,-0.4125 -3.40375,0.4125 -3.19875,1.34125 -2.68125,2.0625 -2.115,2.73375 -1.29,3.19875 -0.46375,3.40375 0.46375,3.405 1.29,3.14625 2.115,2.73375 2.68125,2.115 3.19875,1.28875 3.40375,0.465 3.405,-0.465 3.14625,-1.28875 2.73375,-2.115 2.115,-2.73375 1.28875,-3.14625 0.465,-3.405 0.0512,0"
         style="fill:none;stroke:#1f1a17;stroke-width:0.61874998;stroke-linecap:butt;stroke-linejoin:miter;stroke-miterlimit:10;stroke-dasharray:none;stroke-opacity:1"
         id="path37115" /></g></g></svg>